<?xml version="1.0" encoding="utf-8"?>
<!-- Generator: Adobe Illustrator 16.0.0, SVG Export Plug-In . SVG Version: 6.00 Build 0)  -->
<!DOCTYPE svg PUBLIC "-//W3C//DTD SVG 1.1//EN" "http://www.w3.org/Graphics/SVG/1.1/DTD/svg11.dtd">
<svg version="1.1" xmlns="http://www.w3.org/2000/svg" xmlns:xlink="http://www.w3.org/1999/xlink" x="0px" y="0px" width="150px"
	 height="50px" viewBox="0 0 150 50" enable-background="new 0 0 150 50" xml:space="preserve">
<g id="Capa_1">
</g>
<g id="Modo_de_aislamiento">
	<g>
		<g>
			
				<image overflow="visible" opacity="0.75" width="559" height="230" xlink:href="841DE05E1EE2B1BF.png"  transform="matrix(0.24 0 0 0.24 7.7183 -0.2627)">
			</image>
			<g>
				<linearGradient id="SVGID_1_" gradientUnits="userSpaceOnUse" x1="20.1924" y1="21.4902" x2="129.1924" y2="21.4902">
					<stop  offset="0" style="stop-color:#0097B9"/>
					<stop  offset="0.0966" style="stop-color:#008AAA"/>
					<stop  offset="0.3641" style="stop-color:#006A84"/>
					<stop  offset="0.6124" style="stop-color:#005369"/>
					<stop  offset="0.8321" style="stop-color:#004559"/>
					<stop  offset="1" style="stop-color:#004053"/>
				</linearGradient>
				<path fill="url(#SVGID_1_)" d="M115.579,36.59H33.806c-7.519,0-13.613-6.76-13.613-15.1l0,0c0-8.34,6.095-15.1,13.613-15.1
					h81.773c7.52,0,13.613,6.76,13.613,15.1l0,0C129.192,29.83,123.099,36.59,115.579,36.59z"/>
			</g>
		</g>
	</g>
	<g id="Layer_1">
		<g>
			
				<image overflow="visible" opacity="0.75" width="235" height="146" xlink:href="841DE05E1EE2B1BD.png"  transform="matrix(0.24 0 0 0.24 45.6357 5.8359)">
			</image>
			<g>
				<g>
					<path fill="#FFFFFF" d="M58.87,25.02l1.998-13.241h4.076v18.649h-2.771V17.054l-2.025,13.374h-2.771L55.193,17.24v13.188
						h-2.558V11.778h4.076L58.87,25.02z"/>
					<path fill="#FFFFFF" d="M70.004,19.638h4.023v2.664h-4.023v5.462h5.062v2.664h-7.993V11.778h7.993v2.664h-5.062V19.638z"/>
					<path fill="#FFFFFF" d="M79.488,16.92v13.508h-2.638V11.778h3.677l3.011,11.163V11.778h2.61v18.649h-3.011L79.488,16.92z"/>
					<path fill="#FFFFFF" d="M91.049,11.778v14.387c0,1.332,0.586,1.812,1.519,1.812s1.519-0.479,1.519-1.812V11.778h2.771v14.2
						c0,2.984-1.492,4.689-4.369,4.689s-4.369-1.705-4.369-4.689v-14.2H91.049z M95.657,7.836l-2.717,2.957h-1.972l1.812-2.957
						H95.657z"/>
				</g>
			</g>
		</g>
	</g>
	<g id="Capa_5">
		<g id="Capa_19">
		</g>
		<g id="Capa_18">
		</g>
		<g id="Capa_17">
		</g>
		<g id="Capa_16">
		</g>
		<g id="Capa_15">
		</g>
		<g id="Capa_14">
		</g>
		<g id="Capa_13">
		</g>
		<g id="Capa_12">
		</g>
		<g id="Capa_11">
		</g>
		<g id="Capa_10">
		</g>
		<g id="Capa_9">
		</g>
		<g id="Capa_8">
		</g>
		<g id="Capa_7">
		</g>
		<g id="Capa_6">
		</g>
	</g>
</g>
</svg>
